<svg id="svg" version="1.1" xmlns="http://www.w3.org/2000/svg" xmlns:xlink="http://www.w3.org/1999/xlink" width="400" height="484.2105263157895" viewBox="0, 0, 400,484.2105263157895"><g id="svgg"><path id="path0" d="M0.000 250.567 C 0.000 343.302,0.134 390.378,0.400 390.467 C 0.619 390.540,0.824 391.658,0.853 392.952 C 0.898 394.884,1.041 395.338,1.654 395.498 C 2.346 395.679,2.637 396.761,2.421 398.340 C 2.380 398.637,2.539 398.762,2.773 398.617 C 3.008 398.471,3.200 398.554,3.200 398.800 C 3.200 399.046,3.380 399.136,3.600 399.000 C 3.838 398.853,4.000 399.333,4.000 400.189 C 4.000 401.128,4.218 401.709,4.631 401.867 C 4.977 402.000,5.430 402.553,5.636 403.095 C 5.879 403.734,6.221 404.001,6.606 403.853 C 7.029 403.691,7.200 403.899,7.200 404.580 C 7.200 405.949,7.600 406.800,8.243 406.800 C 8.549 406.800,8.800 407.007,8.800 407.260 C 8.800 407.931,11.541 410.484,11.974 410.216 C 12.177 410.091,12.401 410.396,12.471 410.894 C 12.562 411.533,12.885 411.814,13.568 411.849 C 14.100 411.875,14.783 412.235,15.085 412.649 C 15.387 413.062,15.807 413.423,16.017 413.450 C 16.228 413.477,16.653 413.523,16.963 413.550 C 17.330 413.583,17.457 413.912,17.328 414.500 C 17.169 415.223,17.215 415.282,17.559 414.800 C 17.850 414.393,17.990 414.360,17.994 414.700 C 17.997 414.975,18.358 415.200,18.797 415.200 C 19.235 415.200,19.818 415.560,20.093 416.000 C 20.449 416.570,21.026 416.800,22.096 416.800 C 23.333 416.800,23.600 416.942,23.600 417.600 C 23.600 418.263,23.867 418.400,25.153 418.400 C 26.370 418.400,26.752 418.573,26.916 419.200 C 27.106 419.928,27.462 420.000,30.866 420.000 C 34.143 420.000,34.668 420.097,35.095 420.781 C 35.817 421.937,106.163 422.069,108.300 420.918 C 109.015 420.533,109.600 420.017,109.600 419.771 C 109.600 419.525,109.942 419.014,110.360 418.636 C 110.779 418.257,111.233 417.348,111.371 416.614 C 111.509 415.881,111.865 415.078,112.162 414.831 C 112.460 414.584,112.806 413.868,112.932 413.239 C 113.058 412.611,113.418 411.840,113.732 411.526 C 114.046 411.212,114.426 410.392,114.577 409.705 C 114.728 409.018,115.091 408.256,115.384 408.013 C 115.677 407.770,116.035 406.938,116.180 406.165 C 116.325 405.391,116.687 404.665,116.983 404.551 C 117.279 404.438,117.634 403.745,117.771 403.012 C 117.909 402.280,118.282 401.464,118.600 401.200 C 118.918 400.936,119.296 400.093,119.440 399.328 C 119.584 398.562,119.948 397.841,120.251 397.725 C 120.553 397.609,120.800 397.200,120.800 396.817 C 120.800 396.433,121.220 395.327,121.733 394.360 C 122.247 393.392,122.790 392.105,122.941 391.500 C 123.092 390.895,123.384 390.400,123.589 390.400 C 123.795 390.400,124.080 389.782,124.221 389.026 C 124.363 388.271,124.821 387.343,125.240 386.964 C 125.658 386.586,126.000 385.881,126.000 385.399 C 126.000 384.917,126.360 384.107,126.800 383.600 C 127.240 383.093,127.600 382.283,127.600 381.800 C 127.600 381.317,127.960 380.507,128.400 380.000 C 128.840 379.493,129.200 378.729,129.200 378.302 C 129.200 377.875,129.560 377.069,130.000 376.509 C 130.440 375.950,130.800 375.178,130.800 374.795 C 130.800 374.412,131.058 373.883,131.374 373.621 C 131.690 373.359,132.074 372.572,132.226 371.872 C 132.379 371.173,132.841 370.171,133.252 369.646 C 133.663 369.121,134.000 368.381,134.000 368.000 C 134.000 367.619,134.360 366.850,134.800 366.291 C 135.240 365.731,135.600 364.921,135.600 364.491 C 135.600 364.060,135.960 363.250,136.400 362.691 C 136.840 362.131,137.200 361.411,137.200 361.091 C 137.200 360.770,137.560 360.050,138.000 359.491 C 138.440 358.931,138.800 358.121,138.800 357.691 C 138.800 357.260,139.160 356.450,139.600 355.891 C 140.040 355.331,140.400 354.504,140.400 354.052 C 140.400 353.601,140.739 352.909,141.153 352.516 C 141.568 352.122,142.029 351.227,142.179 350.528 C 142.329 349.828,142.691 349.056,142.984 348.813 C 143.277 348.570,143.630 347.766,143.769 347.026 C 143.908 346.286,144.268 345.476,144.569 345.226 C 144.870 344.976,145.235 344.138,145.380 343.365 C 145.525 342.591,145.904 341.858,146.222 341.736 C 146.540 341.614,146.800 341.108,146.800 340.611 C 146.800 340.114,147.137 339.279,147.548 338.754 C 147.959 338.229,148.426 337.203,148.586 336.473 C 148.745 335.743,149.111 335.056,149.398 334.945 C 149.686 334.835,150.034 334.145,150.171 333.412 C 150.309 332.680,150.682 331.864,151.000 331.600 C 151.318 331.336,151.692 330.514,151.831 329.774 C 151.970 329.034,152.323 328.230,152.616 327.987 C 152.909 327.744,153.274 326.972,153.426 326.272 C 153.579 325.573,154.041 324.571,154.452 324.046 C 154.863 323.521,155.201 322.801,155.203 322.446 C 155.204 322.091,155.563 321.260,156.000 320.600 C 156.437 319.940,156.796 319.098,156.797 318.729 C 156.799 318.359,157.043 317.814,157.340 317.518 C 157.636 317.221,158.096 316.322,158.360 315.521 C 158.625 314.720,159.102 313.848,159.420 313.583 C 159.739 313.318,160.000 312.702,160.000 312.212 C 160.000 311.723,160.360 310.907,160.800 310.400 C 161.240 309.893,161.600 309.129,161.600 308.702 C 161.600 308.275,161.960 307.469,162.400 306.909 C 162.840 306.350,163.201 305.601,163.203 305.246 C 163.204 304.891,163.563 304.060,164.000 303.400 C 164.437 302.740,164.796 301.909,164.797 301.554 C 164.799 301.199,165.160 300.450,165.600 299.891 C 166.040 299.331,166.400 298.525,166.400 298.099 C 166.400 297.673,166.760 296.998,167.200 296.600 C 167.640 296.202,168.000 295.478,168.000 294.992 C 168.000 294.506,168.360 293.650,168.800 293.091 C 169.240 292.531,169.600 291.695,169.600 291.233 C 169.600 290.771,169.960 290.084,170.400 289.707 C 170.840 289.330,171.200 288.636,171.200 288.165 C 171.200 287.694,171.560 286.850,172.000 286.291 C 172.440 285.731,172.800 284.925,172.800 284.498 C 172.800 284.071,173.160 283.307,173.600 282.800 C 174.040 282.293,174.400 281.483,174.400 281.001 C 174.400 280.519,174.760 279.798,175.200 279.400 C 176.285 278.418,176.211 277.962,174.773 276.796 C 172.666 275.086,171.200 273.609,171.200 273.197 C 171.200 272.978,171.042 272.800,170.848 272.800 C 170.375 272.800,166.400 267.624,166.400 267.008 C 166.400 266.741,166.040 266.107,165.600 265.600 C 165.160 265.093,164.800 264.329,164.800 263.902 C 164.800 263.475,164.440 262.669,164.000 262.109 C 163.560 261.550,163.199 260.531,163.198 259.846 C 163.196 259.161,162.888 258.060,162.512 257.400 C 161.503 255.627,161.238 242.207,162.176 240.328 C 162.527 239.624,162.925 238.316,163.058 237.423 C 163.192 236.531,163.639 235.239,164.051 234.553 C 164.463 233.867,164.800 232.950,164.800 232.515 C 164.800 232.080,165.160 231.398,165.600 231.000 C 166.040 230.602,166.400 229.945,166.400 229.541 C 166.400 229.137,166.760 228.582,167.200 228.307 C 167.640 228.032,168.000 227.582,168.000 227.307 C 168.000 227.032,168.360 226.582,168.800 226.307 C 169.240 226.032,169.600 225.600,169.600 225.347 C 169.600 224.738,174.727 219.600,175.334 219.600 C 175.595 219.600,176.032 219.240,176.307 218.800 C 176.582 218.360,176.985 218.000,177.203 218.000 C 177.422 218.000,177.960 217.640,178.400 217.200 C 178.840 216.760,179.517 216.400,179.904 216.400 C 180.291 216.400,180.832 216.040,181.107 215.600 C 181.428 215.087,182.040 214.800,182.816 214.800 C 183.512 214.800,184.121 214.550,184.251 214.211 C 184.376 213.887,185.135 213.509,185.939 213.372 C 186.742 213.235,188.480 212.701,189.800 212.186 L 192.200 211.249 192.400 198.714 C 192.614 185.275,192.490 186.054,194.784 183.792 C 196.157 182.438,199.839 181.307,200.839 181.931 C 201.251 182.189,202.035 182.400,202.579 182.400 C 203.123 182.400,203.891 182.733,204.284 183.141 C 205.736 184.644,206.521 184.821,207.531 183.875 C 208.291 183.163,209.049 182.976,211.669 182.857 L 214.876 182.712 216.838 184.801 L 218.800 186.891 218.800 199.622 C 218.800 208.994,218.675 212.430,218.327 212.645 C 217.755 212.999,218.919 213.530,220.356 213.572 C 222.770 213.643,230.333 217.861,234.688 221.564 C 237.268 223.758,243.200 231.911,243.200 233.263 C 243.200 233.570,243.448 234.177,243.752 234.611 C 244.280 235.367,245.312 238.806,246.028 242.200 C 248.186 252.433,243.973 265.688,236.054 273.572 C 231.918 277.690,232.056 276.862,234.605 282.261 C 235.836 284.867,237.013 287.270,237.222 287.600 C 237.431 287.930,237.791 288.650,238.022 289.200 C 238.809 291.077,240.056 293.799,240.403 294.400 C 240.923 295.301,242.498 298.529,244.599 303.000 C 245.633 305.200,247.880 309.880,249.593 313.400 C 253.640 321.717,256.965 328.643,257.755 330.400 C 258.101 331.170,258.557 332.070,258.768 332.400 C 258.980 332.730,259.904 334.620,260.822 336.600 C 261.740 338.580,263.887 343.080,265.594 346.600 C 267.301 350.120,269.459 354.620,270.390 356.600 C 271.322 358.580,273.484 363.080,275.195 366.600 C 276.907 370.120,279.148 374.800,280.177 377.000 C 282.007 380.915,282.228 381.367,283.105 383.000 C 283.341 383.440,284.608 386.050,285.920 388.800 C 287.232 391.550,289.569 396.410,291.112 399.600 C 292.655 402.790,294.935 407.560,296.178 410.200 C 297.422 412.840,298.701 415.478,299.020 416.062 C 299.339 416.646,299.600 417.681,299.600 418.362 L 299.600 419.600 295.267 419.600 C 290.586 419.600,290.384 419.654,290.691 420.826 C 290.891 421.590,291.418 421.604,317.547 421.503 L 344.200 421.400 344.400 320.665 L 344.600 219.931 345.722 218.965 L 346.845 218.000 358.722 217.987 C 368.408 217.977,370.740 217.869,371.358 217.401 C 371.775 217.085,373.160 216.709,374.434 216.564 C 375.738 216.417,376.838 216.077,376.949 215.789 C 377.057 215.506,377.743 215.145,378.473 214.986 C 379.203 214.826,380.229 214.359,380.754 213.948 C 381.279 213.537,382.004 213.200,382.365 213.200 C 382.726 213.200,383.315 212.885,383.672 212.500 C 384.030 212.115,384.974 211.350,385.771 210.800 C 388.003 209.259,389.114 208.176,391.440 205.275 C 392.620 203.804,393.859 202.315,394.193 201.966 C 394.527 201.618,394.800 201.106,394.800 200.830 C 394.800 200.553,395.160 199.869,395.600 199.309 C 396.040 198.750,396.401 198.001,396.403 197.646 C 396.404 197.291,396.763 196.460,397.200 195.800 C 397.637 195.140,397.996 194.132,397.997 193.560 C 398.001 191.988,398.807 190.000,399.439 190.000 C 399.906 190.000,400.000 188.255,400.000 179.600 C 400.000 172.933,399.856 169.200,399.600 169.200 C 399.380 169.200,399.200 168.193,399.200 166.963 C 399.200 165.082,399.076 164.693,398.422 164.522 C 397.863 164.375,397.609 163.907,397.522 162.859 C 397.430 161.756,397.229 161.414,396.700 161.456 C 396.233 161.493,396.000 161.225,396.000 160.652 C 396.000 160.179,395.640 159.568,395.200 159.293 C 394.735 159.003,394.400 158.360,394.400 157.759 C 394.400 157.062,394.140 156.657,393.600 156.516 C 393.157 156.400,392.800 155.970,392.800 155.553 C 392.800 155.024,392.513 154.800,391.837 154.800 C 391.094 154.800,390.919 154.630,391.071 154.052 C 391.215 153.501,390.994 153.235,390.235 153.045 C 389.669 152.902,389.249 152.627,389.302 152.433 C 389.356 152.239,389.220 152.028,389.000 151.963 C 388.780 151.899,388.150 151.426,387.600 150.911 C 387.050 150.396,386.190 149.870,385.689 149.741 C 385.189 149.613,384.591 149.157,384.362 148.729 C 384.120 148.276,383.579 147.979,383.073 148.019 C 381.514 148.143,381.200 148.012,381.200 147.240 C 381.200 146.633,380.908 146.480,379.748 146.480 C 378.366 146.480,377.426 145.806,377.850 145.119 C 377.958 144.944,377.182 144.794,376.124 144.787 C 374.284 144.775,372.524 144.010,373.073 143.460 C 373.216 143.317,372.139 143.200,370.679 143.200 C 368.560 143.200,368.069 143.086,368.241 142.636 C 368.537 141.867,367.691 141.701,363.047 141.620 C 359.421 141.557,357.510 141.024,358.250 140.283 C 358.367 140.166,351.268 140.049,342.475 140.022 L 326.488 139.973 326.087 141.122 L 325.686 142.272 182.543 142.543 C 81.257 142.735,38.757 142.689,37.200 142.385 C 35.990 142.149,33.659 141.783,32.020 141.572 C 30.382 141.361,28.668 140.943,28.212 140.644 C 27.756 140.346,26.609 139.970,25.663 139.811 C 24.718 139.651,23.852 139.279,23.739 138.985 C 23.626 138.690,23.021 138.336,22.394 138.199 C 21.768 138.061,21.048 137.699,20.796 137.395 C 20.543 137.090,19.720 136.638,18.968 136.389 C 18.216 136.141,17.600 135.766,17.600 135.556 C 17.600 135.347,17.285 135.061,16.900 134.922 C 16.092 134.631,15.776 134.367,12.800 131.495 C 10.060 128.850,7.600 126.109,7.600 125.701 C 7.600 125.531,7.240 125.168,6.800 124.893 C 6.360 124.618,6.000 124.063,6.000 123.659 C 6.000 123.255,5.640 122.598,5.200 122.200 C 4.760 121.802,4.396 121.189,4.391 120.838 C 4.386 120.487,4.030 119.750,3.600 119.200 C 3.170 118.650,2.813 117.840,2.806 117.400 C 2.800 116.960,2.437 116.060,2.000 115.400 C 1.563 114.740,1.204 113.720,1.203 113.133 C 1.199 111.815,0.831 110.800,0.357 110.800 C 0.148 110.800,0.000 168.819,0.000 250.567 M200.559 228.578 C 196.563 230.033,190.858 235.918,189.600 239.882 C 189.405 240.497,188.973 241.720,188.640 242.600 C 184.849 252.627,193.912 268.793,203.165 268.509 C 205.434 268.439,206.326 268.239,206.965 267.655 C 207.424 267.235,208.223 266.763,208.739 266.606 C 209.256 266.449,209.989 266.024,210.369 265.661 C 210.748 265.297,211.585 264.510,212.229 263.911 C 217.441 259.062,219.370 253.108,218.436 244.747 C 218.201 242.639,217.782 240.821,217.445 240.447 C 217.125 240.091,216.742 239.318,216.595 238.729 C 216.448 238.141,215.984 237.348,215.564 236.967 C 215.144 236.587,214.800 236.121,214.800 235.933 C 214.800 235.379,209.610 230.400,209.034 230.400 C 208.744 230.400,208.079 230.068,207.554 229.663 C 206.273 228.673,202.083 228.023,200.559 228.578 M201.335 348.532 C 199.262 350.180,197.300 352.584,196.546 354.400 C 196.152 355.347,193.705 360.612,191.526 365.200 C 190.429 367.510,189.207 370.120,188.811 371.000 C 187.896 373.032,183.315 382.707,178.960 391.806 C 178.432 392.909,178.000 394.012,178.000 394.257 C 178.000 394.502,177.749 394.910,177.442 395.165 C 177.135 395.420,176.770 396.234,176.631 396.974 C 176.492 397.714,176.114 398.540,175.789 398.809 C 175.465 399.078,175.200 399.501,175.200 399.749 C 175.200 399.997,174.410 401.820,173.444 403.800 C 172.477 405.780,171.055 408.750,170.283 410.400 C 169.510 412.050,168.221 414.790,167.417 416.488 L 165.956 419.576 161.078 419.688 C 156.363 419.796,156.196 419.830,156.072 420.700 L 155.944 421.600 199.972 421.600 L 244.000 421.600 244.000 420.043 C 244.000 419.074,243.788 418.404,243.438 418.270 C 243.128 418.151,242.747 417.457,242.591 416.727 C 242.435 415.997,241.968 415.078,241.553 414.684 C 241.139 414.291,240.800 413.599,240.800 413.148 C 240.800 412.696,240.440 411.869,240.000 411.309 C 239.560 410.750,239.200 410.030,239.200 409.709 C 239.200 409.389,238.840 408.669,238.400 408.109 C 237.960 407.550,237.600 406.740,237.600 406.309 C 237.600 405.879,237.240 405.069,236.800 404.509 C 236.360 403.950,236.000 403.230,236.000 402.909 C 236.000 402.589,235.640 401.869,235.200 401.309 C 234.760 400.750,234.400 400.030,234.400 399.709 C 234.400 399.389,234.040 398.669,233.600 398.109 C 233.160 397.550,232.800 396.784,232.800 396.407 C 232.800 396.031,232.440 395.307,232.000 394.800 C 231.560 394.293,231.200 393.569,231.200 393.193 C 231.200 392.816,230.863 392.079,230.452 391.554 C 230.041 391.029,229.579 390.027,229.426 389.328 C 229.274 388.628,228.890 387.841,228.574 387.579 C 228.258 387.317,228.000 386.788,228.000 386.405 C 228.000 386.022,227.663 385.279,227.252 384.754 C 226.841 384.229,226.376 383.215,226.220 382.500 C 226.064 381.785,225.785 381.200,225.599 381.200 C 225.414 381.200,225.045 380.525,224.780 379.700 C 224.516 378.875,224.066 377.930,223.781 377.600 C 223.496 377.270,223.141 376.512,222.992 375.916 C 222.843 375.320,222.474 374.627,222.171 374.376 C 221.869 374.125,221.506 373.308,221.366 372.560 C 221.226 371.812,220.965 371.200,220.787 371.200 C 220.608 371.200,220.245 370.525,219.980 369.700 C 219.716 368.875,219.266 367.930,218.981 367.600 C 218.696 367.270,218.341 366.512,218.192 365.916 C 218.043 365.320,217.674 364.627,217.371 364.376 C 217.069 364.125,216.709 363.320,216.571 362.588 C 216.434 361.855,216.086 361.165,215.798 361.055 C 215.511 360.944,215.145 360.257,214.986 359.527 C 214.826 358.797,214.359 357.771,213.948 357.246 C 213.537 356.721,213.200 355.967,213.200 355.570 C 213.200 355.172,213.002 354.725,212.759 354.575 C 212.517 354.425,212.064 353.694,211.754 352.951 C 211.443 352.208,211.024 351.600,210.822 351.600 C 210.619 351.600,210.340 351.240,210.200 350.800 C 210.060 350.360,209.688 350.000,209.373 350.000 C 209.058 350.000,208.800 349.852,208.800 349.671 C 208.800 347.528,203.596 346.734,201.335 348.532 " stroke="none" fill="#4484f4" fill-rule="evenodd"></path><path id="path1" d="M116.447 0.655 C 116.082 1.067,115.901 2.250,115.914 4.139 C 115.946 8.879,115.931 8.800,116.800 8.800 C 117.467 8.800,117.600 9.067,117.600 10.400 C 117.600 11.733,117.733 12.000,118.400 12.000 C 119.134 12.000,119.491 13.083,119.236 14.534 C 119.204 14.718,119.542 14.964,119.989 15.081 C 120.441 15.200,120.800 15.626,120.800 16.047 C 120.800 16.533,121.083 16.800,121.600 16.800 C 122.270 16.800,122.400 17.067,122.400 18.437 C 122.400 19.738,122.564 20.118,123.200 20.284 C 123.769 20.433,124.000 20.830,124.000 21.659 C 124.000 22.352,124.256 22.923,124.631 23.067 C 125.167 23.273,126.054 24.776,126.166 25.667 C 126.185 25.813,126.364 26.083,126.564 26.267 C 126.780 26.464,126.795 26.371,126.602 26.038 C 126.383 25.660,126.428 25.570,126.738 25.762 C 126.992 25.919,127.200 26.503,127.200 27.061 C 127.200 27.738,127.465 28.144,128.000 28.284 C 128.629 28.449,128.800 28.830,128.800 30.070 C 128.800 30.938,128.944 31.558,129.119 31.450 C 129.746 31.063,130.392 31.863,130.549 33.220 C 130.661 34.189,130.901 34.583,131.354 34.544 C 131.772 34.508,132.000 34.804,132.000 35.382 C 132.000 35.874,132.344 36.587,132.764 36.967 C 133.184 37.348,133.638 38.096,133.772 38.629 C 133.906 39.163,134.261 39.600,134.561 39.600 C 135.143 39.600,135.652 41.400,135.316 42.275 C 135.205 42.564,134.796 42.800,134.406 42.800 C 133.639 42.800,132.684 43.710,133.003 44.137 C 133.112 44.282,133.095 44.325,132.966 44.233 C 132.533 43.923,130.400 44.873,130.400 45.376 C 130.400 45.649,129.682 46.088,128.805 46.351 C 127.928 46.614,127.253 47.048,127.305 47.315 C 127.357 47.582,127.090 47.776,126.712 47.746 C 126.334 47.717,125.917 48.032,125.785 48.446 C 125.574 49.113,125.146 49.358,124.357 49.266 C 124.224 49.251,123.878 49.680,123.590 50.219 C 123.222 50.906,122.725 51.200,121.932 51.200 C 121.067 51.200,120.800 51.388,120.800 52.000 C 120.800 52.533,120.533 52.800,120.000 52.800 C 119.467 52.800,119.200 53.067,119.200 53.600 C 119.200 54.133,118.933 54.400,118.400 54.400 C 117.867 54.400,117.600 54.667,117.600 55.200 C 117.600 55.709,117.333 56.000,116.867 56.000 C 116.463 56.000,115.998 56.135,115.833 56.300 C 115.668 56.465,115.323 56.608,115.067 56.618 C 114.810 56.628,114.646 56.857,114.702 57.126 C 114.759 57.395,114.354 57.820,113.802 58.072 C 113.178 58.356,112.800 58.858,112.800 59.403 C 112.800 60.919,111.674 62.625,108.671 65.659 C 103.687 70.693,97.700 78.352,93.438 85.147 C 92.799 86.166,91.702 87.900,91.001 89.000 C 89.616 91.175,84.684 101.182,84.201 102.800 C 84.037 103.350,83.713 104.036,83.481 104.325 C 83.005 104.919,82.147 107.268,80.385 112.800 C 79.719 114.890,78.981 117.140,78.745 117.800 C 78.509 118.460,78.089 120.170,77.812 121.600 C 77.535 123.030,77.129 124.650,76.910 125.200 C 76.691 125.750,76.387 127.370,76.234 128.800 C 76.082 130.230,75.794 132.030,75.596 132.800 C 74.890 135.540,74.446 140.539,74.843 141.280 C 75.213 141.971,80.274 142.000,200.205 142.000 L 325.182 142.000 325.809 141.043 C 326.526 139.948,326.640 129.600,325.935 129.600 C 325.725 129.600,325.664 129.420,325.800 129.200 C 325.936 128.980,325.767 128.800,325.424 128.800 C 324.919 128.800,324.794 128.247,324.769 125.900 C 324.731 122.286,324.593 121.530,323.871 121.002 C 323.509 120.738,323.224 119.564,323.098 117.822 C 322.970 116.038,322.690 114.909,322.308 114.630 C 321.982 114.391,321.590 113.179,321.434 111.932 C 321.260 110.540,320.929 109.582,320.575 109.446 C 320.240 109.317,319.996 108.679,319.991 107.913 C 319.986 107.191,319.630 106.150,319.200 105.600 C 318.770 105.050,318.401 104.150,318.381 103.600 C 318.336 102.386,317.873 101.130,317.484 101.170 C 316.553 101.267,316.400 101.047,316.400 99.600 C 316.400 98.267,316.267 98.000,315.600 98.000 C 314.933 98.000,314.800 97.733,314.800 96.400 C 314.800 95.067,314.667 94.800,314.000 94.800 C 313.333 94.800,313.200 94.533,313.200 93.200 C 313.200 91.867,313.067 91.600,312.400 91.600 C 311.748 91.600,311.600 91.333,311.600 90.163 C 311.600 89.075,311.411 88.676,310.822 88.522 C 310.263 88.375,310.009 87.907,309.922 86.859 C 309.840 85.883,309.601 85.400,309.200 85.400 C 308.870 85.400,308.504 84.950,308.387 84.400 C 308.245 83.734,307.944 83.439,307.487 83.518 C 306.866 83.624,306.492 81.984,306.900 80.946 C 306.955 80.806,306.595 80.542,306.100 80.359 C 305.560 80.159,305.200 79.691,305.200 79.189 C 305.200 78.729,305.056 78.442,304.881 78.550 C 304.299 78.910,303.605 78.170,303.516 77.097 C 303.468 76.514,303.350 76.116,303.255 76.212 C 302.963 76.504,301.602 74.721,301.832 74.348 C 302.028 74.032,301.458 73.833,300.700 73.953 C 300.535 73.979,300.400 73.550,300.400 73.000 C 300.400 72.450,300.265 72.021,300.100 72.047 C 299.287 72.176,298.875 71.929,298.684 71.200 C 298.569 70.760,298.188 70.400,297.837 70.400 C 297.467 70.400,297.200 70.065,297.200 69.600 C 297.200 69.160,297.020 68.800,296.800 68.800 C 296.580 68.800,296.445 68.575,296.500 68.300 C 296.555 68.025,296.375 67.845,296.100 67.900 C 295.825 67.955,295.600 67.820,295.600 67.600 C 295.600 66.821,295.527 66.595,295.121 66.104 C 294.894 65.832,294.569 65.696,294.397 65.802 C 294.226 65.908,293.973 65.546,293.835 64.997 C 293.697 64.449,293.330 64.000,293.019 64.000 C 292.708 64.000,292.336 63.627,292.191 63.171 C 292.043 62.705,291.697 62.431,291.401 62.544 C 291.085 62.665,290.778 62.366,290.636 61.801 C 290.490 61.220,290.052 60.806,289.499 60.728 C 288.899 60.642,288.639 60.367,288.718 59.900 C 288.799 59.415,288.572 59.200,287.980 59.200 C 287.462 59.200,287.043 58.885,286.916 58.400 C 286.801 57.960,286.531 57.600,286.316 57.600 C 286.102 57.600,285.469 57.240,284.909 56.800 C 284.350 56.360,283.556 56.000,283.146 56.000 C 282.667 56.000,282.400 55.714,282.400 55.200 C 282.400 54.667,282.133 54.400,281.600 54.400 C 281.067 54.400,280.800 54.133,280.800 53.600 C 280.800 53.067,280.533 52.800,280.000 52.800 C 279.467 52.800,279.200 52.533,279.200 52.000 C 279.200 51.424,278.933 51.200,278.247 51.200 C 277.598 51.200,277.215 50.913,277.047 50.300 C 276.841 49.549,276.735 49.499,276.406 50.000 C 276.143 50.401,276.010 50.434,276.006 50.100 C 276.003 49.825,275.726 49.600,275.390 49.600 C 275.055 49.600,274.602 49.132,274.385 48.559 C 274.136 47.907,273.778 47.600,273.424 47.736 C 273.113 47.855,272.620 47.659,272.329 47.299 C 271.885 46.751,271.890 46.701,272.362 46.985 C 272.721 47.201,272.831 47.173,272.666 46.907 C 272.525 46.678,271.777 46.372,271.004 46.227 C 270.163 46.069,269.600 45.731,269.600 45.382 C 269.600 45.062,269.344 44.800,269.031 44.800 C 268.718 44.800,267.927 44.350,267.273 43.800 C 266.619 43.250,265.818 42.800,265.491 42.800 C 264.645 42.800,263.633 41.526,264.300 41.302 C 264.575 41.209,264.800 40.697,264.800 40.163 C 264.800 39.629,265.160 38.884,265.600 38.507 C 266.040 38.130,266.400 37.523,266.400 37.158 C 266.400 36.792,266.760 36.399,267.200 36.284 C 267.813 36.124,268.000 35.738,268.000 34.637 C 268.000 33.467,268.148 33.200,268.800 33.200 C 269.467 33.200,269.600 32.933,269.600 31.600 C 269.600 30.267,269.733 30.000,270.400 30.000 C 271.026 30.000,271.200 29.733,271.200 28.776 C 271.200 27.980,271.355 27.649,271.645 27.828 C 272.195 28.168,272.786 27.293,272.794 26.127 C 272.797 25.617,273.123 25.151,273.577 25.007 C 274.127 24.833,274.390 24.328,274.477 23.280 C 274.560 22.286,274.797 21.800,275.200 21.800 C 275.605 21.800,275.840 21.311,275.924 20.300 C 276.021 19.125,276.216 18.800,276.824 18.800 C 277.363 18.800,277.600 18.524,277.600 17.896 C 277.600 17.399,277.960 16.768,278.400 16.493 C 278.910 16.174,279.200 15.560,279.200 14.797 C 279.200 13.727,279.541 13.401,280.500 13.553 C 280.665 13.579,280.779 13.465,280.753 13.300 C 280.515 11.794,280.887 10.471,281.600 10.284 C 282.209 10.125,282.400 9.738,282.400 8.665 C 282.400 7.514,282.563 7.232,283.289 7.128 C 284.245 6.990,284.800 4.302,284.167 2.872 C 283.828 2.107,283.721 1.764,283.650 1.213 C 283.623 0.999,283.330 0.929,283.000 1.055 C 282.620 1.201,282.400 1.050,282.400 0.643 C 282.400 0.095,281.807 0.000,278.400 0.000 C 274.993 0.000,274.400 0.095,274.400 0.643 C 274.400 1.050,274.180 1.201,273.800 1.055 C 273.470 0.929,273.188 0.954,273.172 1.113 C 272.990 3.019,272.715 3.820,272.022 4.465 C 271.570 4.887,271.200 5.674,271.200 6.216 C 271.200 7.094,270.823 7.393,269.900 7.247 C 269.735 7.221,269.594 7.515,269.587 7.900 C 269.571 8.805,268.608 10.075,268.227 9.694 C 268.066 9.532,267.970 9.580,268.014 9.800 C 268.192 10.683,267.981 12.397,267.700 12.353 C 266.704 12.195,266.400 12.528,266.400 13.773 C 266.400 14.780,266.193 15.212,265.625 15.392 C 265.199 15.527,264.794 16.034,264.725 16.519 C 264.656 17.004,264.330 17.400,264.001 17.400 C 263.671 17.400,263.383 17.670,263.361 18.000 C 263.340 18.330,263.294 18.993,263.261 19.473 C 263.227 19.959,262.846 20.459,262.400 20.600 C 261.805 20.789,261.600 21.205,261.600 22.227 C 261.600 23.333,261.445 23.600,260.800 23.600 C 260.251 23.600,259.986 23.882,259.954 24.500 C 259.856 26.414,259.779 26.598,259.100 26.544 C 258.613 26.506,258.400 26.780,258.400 27.444 C 258.400 28.133,258.177 28.400,257.600 28.400 C 256.937 28.400,256.800 28.667,256.800 29.953 C 256.800 31.170,256.627 31.552,256.000 31.716 C 255.560 31.831,255.200 32.212,255.200 32.563 C 255.200 32.913,254.840 33.560,254.400 34.000 C 253.960 34.440,253.600 35.160,253.600 35.600 C 253.600 36.750,250.811 36.750,250.093 35.600 C 249.747 35.046,249.160 34.800,248.184 34.800 C 247.123 34.800,246.698 34.595,246.467 33.970 C 246.299 33.514,246.034 33.154,245.880 33.170 C 243.912 33.379,242.000 33.121,242.000 32.647 C 242.000 31.982,240.782 31.613,238.562 31.605 C 237.437 31.602,236.697 31.349,236.200 30.800 C 235.610 30.148,234.968 30.000,232.738 30.000 C 230.761 30.000,230.028 29.861,230.100 29.500 C 230.155 29.225,229.975 29.045,229.700 29.100 C 229.425 29.155,229.200 29.020,229.200 28.800 C 229.200 28.560,227.605 28.400,225.214 28.400 C 221.638 28.400,221.184 28.318,220.800 27.600 C 220.174 26.431,180.394 26.336,179.063 27.500 C 178.488 28.003,178.358 28.031,178.600 27.600 C 178.842 27.169,178.712 27.197,178.137 27.700 C 177.525 28.235,176.620 28.400,174.292 28.400 C 172.617 28.400,171.134 28.583,170.996 28.807 C 170.858 29.030,170.590 29.117,170.400 29.000 C 170.210 28.883,169.925 28.998,169.766 29.255 C 169.573 29.567,169.651 29.616,170.000 29.400 C 170.346 29.186,170.427 29.233,170.238 29.538 C 170.064 29.821,168.789 30.000,166.953 30.000 C 164.764 30.000,164.031 30.127,164.242 30.468 C 164.435 30.780,164.316 30.853,163.886 30.688 C 163.463 30.526,163.308 30.616,163.435 30.948 C 163.575 31.313,163.034 31.480,161.515 31.543 C 158.829 31.654,158.000 31.909,158.000 32.627 C 158.000 33.141,155.961 33.463,154.130 33.237 C 153.872 33.205,153.529 33.391,153.368 33.651 C 153.168 33.976,153.252 34.018,153.638 33.785 C 154.117 33.497,154.119 33.547,153.651 34.123 C 153.306 34.548,152.525 34.800,151.551 34.800 C 150.294 34.800,150.000 34.944,150.000 35.560 C 150.000 36.172,149.651 36.347,148.200 36.463 C 146.556 36.593,146.400 36.528,146.400 35.703 C 146.400 35.206,146.040 34.440,145.600 34.000 C 145.160 33.560,144.800 32.840,144.800 32.400 C 144.800 31.867,144.533 31.600,144.000 31.600 C 143.333 31.600,143.200 31.333,143.200 30.000 C 143.200 28.667,143.067 28.400,142.400 28.400 C 141.748 28.400,141.600 28.133,141.600 26.963 C 141.600 25.862,141.413 25.476,140.800 25.316 C 140.357 25.200,140.000 24.770,140.000 24.353 C 140.000 23.867,139.717 23.600,139.200 23.600 C 138.533 23.600,138.400 23.333,138.400 22.000 C 138.400 20.667,138.267 20.400,137.600 20.400 C 136.839 20.400,136.544 19.441,136.770 17.700 C 136.806 17.425,136.467 17.200,136.018 17.200 C 135.394 17.200,135.199 16.939,135.194 16.100 C 135.186 14.734,134.634 13.808,134.045 14.172 C 133.765 14.345,133.600 14.085,133.600 13.470 C 133.600 12.830,133.325 12.421,132.800 12.284 C 132.268 12.145,132.000 11.738,132.000 11.070 C 132.000 9.758,131.602 8.751,131.186 9.009 C 130.707 9.305,130.351 8.566,130.312 7.195 C 130.282 6.116,129.986 5.813,129.100 5.953 C 128.935 5.979,128.800 5.550,128.800 5.000 C 128.800 4.317,128.578 3.998,128.100 3.994 C 127.502 3.989,127.487 3.931,128.000 3.600 C 128.540 3.251,128.290 3.028,127.500 3.153 C 127.335 3.179,127.200 2.649,127.200 1.976 C 127.200 1.303,127.035 0.855,126.832 0.980 C 126.630 1.105,126.193 0.936,125.861 0.604 C 124.978 -0.279,117.237 -0.237,116.447 0.655 M147.736 85.383 C 154.555 89.380,154.792 98.060,148.228 103.463 L 145.876 105.400 142.038 105.400 C 129.075 105.400,127.792 88.819,140.400 84.233 C 141.900 83.687,145.916 84.317,147.736 85.383 M261.028 85.649 C 265.819 86.855,269.170 93.002,267.766 98.008 C 266.139 103.805,260.730 106.686,253.999 105.340 C 251.954 104.931,248.251 101.060,247.668 98.723 C 245.484 89.968,252.176 83.420,261.028 85.649 " stroke="none" fill="#3cdb84" fill-rule="evenodd"></path><path id="path2" d="M125.600 25.200 C 125.600 25.420,125.791 25.600,126.024 25.600 C 126.257 25.600,126.355 25.750,126.241 25.933 C 126.128 26.117,126.298 26.267,126.619 26.267 C 127.102 26.267,127.089 26.140,126.540 25.533 C 125.784 24.698,125.600 24.633,125.600 25.200 M259.200 25.744 C 259.200 26.190,259.017 26.344,258.700 26.165 C 258.300 25.939,258.300 25.990,258.700 26.421 C 259.089 26.840,259.307 26.853,259.680 26.480 C 260.053 26.107,260.053 25.893,259.680 25.520 C 259.307 25.147,259.200 25.196,259.200 25.744 M35.000 60.000 C 34.769 60.726,34.395 60.800,30.936 60.800 C 27.462 60.800,27.107 60.871,26.916 61.600 C 26.752 62.227,26.370 62.400,25.153 62.400 C 23.867 62.400,23.600 62.537,23.600 63.200 C 23.600 63.858,23.333 64.000,22.096 64.000 C 21.026 64.000,20.449 64.230,20.093 64.800 C 19.774 65.310,19.160 65.600,18.397 65.600 C 17.467 65.600,17.200 65.778,17.200 66.400 C 17.200 66.929,16.933 67.200,16.414 67.200 C 15.982 67.200,15.435 67.560,15.200 68.000 C 14.943 68.480,14.362 68.800,13.748 68.800 C 13.062 68.800,12.656 69.063,12.516 69.600 C 12.401 70.040,11.980 70.400,11.580 70.400 C 11.181 70.400,10.740 70.760,10.600 71.200 C 10.460 71.640,10.088 72.000,9.773 72.000 C 9.458 72.000,9.200 72.171,9.200 72.379 C 9.200 72.588,8.750 73.244,8.200 73.838 C 7.650 74.431,7.200 75.341,7.200 75.858 C 7.200 76.533,6.973 76.800,6.400 76.800 C 5.876 76.800,5.600 77.067,5.600 77.573 C 5.600 77.998,5.240 78.460,4.800 78.600 C 4.209 78.788,4.000 79.205,4.000 80.200 C 4.000 81.195,3.791 81.612,3.200 81.800 C 2.579 81.997,2.400 82.405,2.400 83.627 C 2.400 84.933,2.264 85.200,1.600 85.200 C 0.889 85.200,0.800 85.467,0.800 87.600 C 0.800 88.933,0.622 90.000,0.400 90.000 C -0.277 90.000,-0.130 107.064,0.549 107.325 C 0.862 107.445,1.311 108.709,1.594 110.268 C 1.867 111.770,2.317 113.363,2.593 113.806 C 2.869 114.249,3.229 115.239,3.392 116.006 C 3.555 116.773,3.918 117.670,4.197 118.000 C 4.477 118.330,4.841 119.050,5.008 119.600 C 5.174 120.150,5.645 121.029,6.055 121.554 C 6.465 122.079,6.800 122.684,6.800 122.898 C 6.800 123.407,9.547 126.742,12.575 129.910 C 14.601 132.030,21.497 137.200,22.298 137.200 C 22.435 137.200,23.279 137.546,24.174 137.970 C 28.082 139.820,31.803 140.716,37.421 141.158 C 43.833 141.662,73.142 141.752,73.902 141.269 C 74.178 141.094,74.591 139.432,74.820 137.575 C 75.049 135.719,75.399 133.570,75.597 132.800 C 75.795 132.030,76.082 130.230,76.234 128.800 C 76.387 127.370,76.691 125.750,76.910 125.200 C 77.129 124.650,77.535 123.030,77.812 121.600 C 78.089 120.170,78.509 118.460,78.745 117.800 C 78.981 117.140,79.719 114.890,80.385 112.800 C 82.147 107.268,83.005 104.919,83.481 104.325 C 83.713 104.036,84.037 103.350,84.201 102.800 C 84.684 101.182,89.616 91.175,91.001 89.000 C 91.702 87.900,92.799 86.166,93.438 85.147 C 97.700 78.352,103.687 70.693,108.671 65.659 C 111.448 62.854,112.800 60.915,112.800 59.739 C 112.800 58.706,35.328 58.966,35.000 60.000 M195.826 184.234 C 193.241 186.557,193.200 186.802,193.200 199.710 C 193.200 213.304,193.304 212.891,189.697 213.589 C 187.569 214.000,184.214 215.199,182.800 216.053 C 182.470 216.252,181.750 216.637,181.200 216.909 C 179.043 217.974,175.019 220.973,172.775 223.188 C 170.991 224.948,167.200 230.100,167.200 230.764 C 167.200 230.944,166.851 231.536,166.425 232.078 C 165.998 232.620,165.524 233.589,165.370 234.232 C 165.217 234.874,164.856 235.850,164.568 236.400 C 163.024 239.348,161.910 249.710,162.804 252.803 C 163.026 253.571,163.378 255.245,163.585 256.522 C 164.515 262.242,168.720 269.763,173.400 274.075 C 177.435 277.792,177.447 277.848,175.224 282.268 C 173.776 285.145,171.910 289.104,169.599 294.200 C 169.100 295.300,167.884 297.910,166.896 300.000 C 163.020 308.204,161.813 310.827,159.536 316.000 C 159.100 316.990,158.575 318.070,158.369 318.400 C 158.163 318.730,157.885 319.270,157.752 319.600 C 157.618 319.930,156.830 321.640,156.000 323.400 C 155.171 325.160,154.092 327.500,153.604 328.600 C 153.115 329.700,151.946 332.220,151.005 334.200 C 149.398 337.582,148.626 339.239,145.555 345.900 C 144.871 347.385,143.626 350.040,142.789 351.800 C 141.952 353.560,140.791 356.080,140.209 357.400 C 139.627 358.720,138.981 360.070,138.773 360.400 C 138.565 360.730,138.297 361.270,138.176 361.600 C 138.056 361.930,137.621 362.920,137.208 363.800 C 136.795 364.680,135.973 366.480,135.379 367.800 C 133.559 371.850,131.148 376.968,130.761 377.600 C 130.560 377.930,130.284 378.470,130.149 378.800 C 129.890 379.432,128.965 381.534,127.552 384.700 C 126.138 387.866,123.153 394.161,122.762 394.800 C 122.560 395.130,122.284 395.670,122.149 396.000 C 121.144 398.456,118.166 404.906,113.447 414.849 C 112.651 416.526,112.000 418.045,112.000 418.225 C 112.000 418.730,108.697 421.600,108.116 421.600 C 107.832 421.600,107.600 421.948,107.600 422.373 C 107.600 422.798,107.240 423.260,106.800 423.400 C 106.184 423.595,106.000 424.005,106.000 425.180 C 106.000 426.370,105.824 426.753,105.200 426.916 C 104.587 427.076,104.400 427.462,104.400 428.563 C 104.400 429.525,104.216 430.000,103.843 430.000 C 103.198 430.000,102.800 430.852,102.800 432.233 C 102.800 432.765,102.440 433.560,102.000 434.000 C 101.467 434.533,101.200 435.333,101.200 436.400 C 101.200 437.733,101.067 438.000,100.400 438.000 C 99.733 438.000,99.600 438.267,99.600 439.600 C 99.600 440.933,99.467 441.200,98.800 441.200 C 98.133 441.200,98.000 441.467,98.000 442.800 C 98.000 444.133,97.867 444.400,97.200 444.400 C 96.537 444.400,96.400 444.667,96.400 445.953 C 96.400 447.170,96.227 447.552,95.600 447.716 C 94.991 447.875,94.800 448.262,94.800 449.336 C 94.800 450.395,94.601 450.809,94.000 451.000 C 93.379 451.197,93.200 451.605,93.200 452.827 C 93.200 453.905,93.025 454.400,92.643 454.400 C 91.920 454.400,91.600 455.280,91.600 457.270 C 91.600 458.538,91.432 458.919,90.800 459.084 C 89.569 459.406,89.569 469.724,90.800 470.493 C 91.421 470.881,91.600 471.426,91.600 472.934 C 91.600 474.538,91.739 474.911,92.400 475.084 C 93.006 475.243,93.200 475.630,93.200 476.684 C 93.200 477.738,93.394 478.125,94.000 478.284 C 94.443 478.400,94.800 478.830,94.800 479.247 C 94.800 479.733,95.083 480.000,95.600 480.000 C 96.133 480.000,96.400 480.267,96.400 480.800 C 96.400 481.317,96.667 481.600,97.153 481.600 C 97.570 481.600,98.000 481.957,98.116 482.400 C 98.276 483.013,98.662 483.200,99.763 483.200 C 100.553 483.200,101.200 483.380,101.200 483.600 C 101.200 483.857,105.000 484.000,111.800 484.000 C 118.600 484.000,122.400 483.857,122.400 483.600 C 122.400 483.380,122.739 483.200,123.153 483.200 C 123.570 483.200,124.000 482.843,124.116 482.400 C 124.258 481.857,124.662 481.600,125.371 481.600 C 126.099 481.600,126.556 481.296,126.873 480.600 C 127.123 480.050,127.561 479.600,127.846 479.600 C 128.131 479.600,128.479 478.987,128.619 478.237 C 128.782 477.368,129.152 476.801,129.638 476.674 C 130.203 476.526,130.400 476.116,130.400 475.084 C 130.400 474.030,130.594 473.643,131.200 473.484 C 131.806 473.325,132.000 472.938,132.000 471.884 C 132.000 470.830,132.194 470.443,132.800 470.284 C 133.409 470.125,133.600 469.738,133.600 468.664 C 133.600 467.605,133.799 467.191,134.400 467.000 C 135.021 466.803,135.200 466.395,135.200 465.173 C 135.200 463.867,135.336 463.600,136.000 463.600 C 136.663 463.600,136.800 463.333,136.800 462.047 C 136.800 460.830,136.973 460.448,137.600 460.284 C 138.199 460.127,138.400 459.738,138.400 458.734 C 138.400 457.826,138.658 457.231,139.200 456.893 C 139.710 456.574,140.000 455.960,140.000 455.197 C 140.000 454.533,140.357 453.643,140.800 453.200 C 141.333 452.667,141.600 451.867,141.600 450.800 C 141.600 449.467,141.733 449.200,142.400 449.200 C 143.067 449.200,143.200 448.933,143.200 447.600 C 143.200 446.267,143.333 446.000,144.000 446.000 C 144.667 446.000,144.800 445.733,144.800 444.400 C 144.800 443.067,144.933 442.800,145.600 442.800 C 146.264 442.800,146.400 442.533,146.400 441.227 C 146.400 440.005,146.579 439.597,147.200 439.400 C 147.821 439.203,148.000 438.795,148.000 437.573 C 148.000 436.267,148.136 436.000,148.800 436.000 C 149.467 436.000,149.600 435.733,149.600 434.400 C 149.600 433.233,149.765 432.800,150.210 432.800 C 150.891 432.800,151.600 431.259,151.600 429.777 C 151.600 429.240,151.957 428.584,152.400 428.307 C 152.962 427.956,153.200 427.374,153.200 426.350 C 153.200 425.225,153.384 424.845,154.007 424.682 C 154.732 424.493,154.804 424.189,154.712 421.736 C 154.622 419.341,154.775 418.651,155.943 416.200 C 157.315 413.322,157.719 412.512,158.384 411.300 C 158.596 410.915,159.237 409.520,159.809 408.200 C 160.381 406.880,161.019 405.530,161.227 405.200 C 161.435 404.870,161.710 404.330,161.838 404.000 C 161.966 403.670,162.485 402.500,162.991 401.400 C 163.498 400.300,164.316 398.500,164.809 397.400 C 165.303 396.300,166.652 393.420,167.808 391.000 C 168.964 388.580,170.396 385.520,170.991 384.200 C 172.843 380.088,173.652 378.341,175.804 373.800 C 176.951 371.380,178.256 368.590,178.703 367.600 C 179.684 365.427,182.780 358.850,184.633 355.000 C 190.758 342.278,207.979 341.684,213.627 354.000 C 213.879 354.550,214.248 355.270,214.446 355.600 C 214.644 355.930,215.004 356.650,215.246 357.200 C 215.722 358.281,216.177 359.197,216.787 360.300 C 217.000 360.685,218.275 363.340,219.621 366.200 C 223.144 373.685,227.207 382.102,227.634 382.800 C 227.837 383.130,228.191 383.850,228.422 384.400 C 229.305 386.504,230.472 389.024,230.829 389.600 C 231.034 389.930,231.390 390.650,231.619 391.200 C 232.127 392.416,235.180 398.764,235.658 399.600 C 235.847 399.930,236.193 400.650,236.426 401.200 C 237.056 402.685,239.994 408.908,240.392 409.600 C 240.582 409.930,241.306 411.370,242.000 412.800 C 242.695 414.230,243.621 416.086,244.058 416.925 C 244.865 418.475,244.803 420.385,243.909 421.495 C 243.387 422.143,243.808 423.200,244.587 423.200 C 245.024 423.200,245.200 423.613,245.200 424.637 C 245.200 425.738,245.387 426.124,246.000 426.284 C 246.606 426.443,246.800 426.830,246.800 427.884 C 246.800 428.938,246.994 429.325,247.600 429.484 C 248.082 429.610,248.402 430.033,248.405 430.547 C 248.416 432.194,248.887 433.200,249.647 433.200 C 250.259 433.200,250.400 433.500,250.400 434.804 C 250.400 435.913,250.647 436.619,251.200 437.093 C 251.643 437.472,252.000 438.273,252.000 438.886 C 252.000 439.560,252.313 440.189,252.800 440.493 C 253.362 440.844,253.600 441.426,253.600 442.450 C 253.600 443.570,253.785 443.955,254.400 444.116 C 255.018 444.277,255.200 444.662,255.200 445.800 C 255.200 446.938,255.382 447.323,256.000 447.484 C 256.606 447.643,256.800 448.030,256.800 449.084 C 256.800 450.138,256.994 450.525,257.600 450.684 C 258.227 450.848,258.400 451.230,258.400 452.447 C 258.400 453.733,258.537 454.000,259.200 454.000 C 259.867 454.000,260.000 454.267,260.000 455.600 C 260.000 456.933,260.133 457.200,260.800 457.200 C 261.467 457.200,261.600 457.467,261.600 458.800 C 261.600 460.133,261.733 460.400,262.400 460.400 C 263.067 460.400,263.200 460.667,263.200 462.000 C 263.200 463.333,263.333 463.600,264.000 463.600 C 264.670 463.600,264.800 463.867,264.800 465.237 C 264.800 466.538,264.964 466.918,265.600 467.084 C 266.206 467.243,266.400 467.630,266.400 468.684 C 266.400 469.738,266.594 470.125,267.200 470.284 C 267.806 470.443,268.000 470.830,268.000 471.884 C 268.000 472.938,268.194 473.325,268.800 473.484 C 269.406 473.643,269.600 474.030,269.600 475.084 C 269.600 476.138,269.794 476.525,270.400 476.684 C 270.843 476.800,271.200 477.230,271.200 477.647 C 271.200 478.133,271.483 478.400,272.000 478.400 C 272.533 478.400,272.800 478.667,272.800 479.200 C 272.800 479.717,273.067 480.000,273.553 480.000 C 273.970 480.000,274.400 480.357,274.516 480.800 C 274.641 481.279,275.062 481.600,275.563 481.600 C 276.023 481.600,276.400 481.849,276.400 482.153 C 276.400 482.805,277.611 483.187,279.700 483.195 C 280.525 483.198,281.200 483.380,281.200 483.600 C 281.200 483.852,283.867 484.000,288.400 484.000 C 292.933 484.000,295.600 483.852,295.600 483.600 C 295.600 483.380,296.320 483.200,297.200 483.200 C 298.533 483.200,298.800 483.067,298.800 482.400 C 298.800 481.781,299.067 481.600,299.977 481.600 C 300.656 481.600,301.376 481.293,301.677 480.874 C 301.965 480.474,302.515 480.030,302.900 479.886 C 303.285 479.743,303.600 479.362,303.600 479.040 C 303.600 478.717,303.960 478.340,304.400 478.200 C 304.995 478.011,305.200 477.595,305.200 476.573 C 305.200 475.467,305.355 475.200,306.000 475.200 C 306.663 475.200,306.800 474.933,306.800 473.647 C 306.800 472.430,306.973 472.048,307.600 471.884 C 308.367 471.684,308.400 471.338,308.400 463.637 C 308.400 455.867,308.373 455.600,307.600 455.600 C 306.907 455.600,306.800 455.333,306.800 453.614 C 306.800 452.038,306.635 451.540,306.000 451.200 C 305.430 450.895,305.200 450.362,305.200 449.348 C 305.200 448.262,305.011 447.876,304.400 447.716 C 303.794 447.557,303.600 447.170,303.600 446.116 C 303.600 445.062,303.406 444.675,302.800 444.516 C 302.173 444.352,302.000 443.970,302.000 442.753 C 302.000 441.467,301.863 441.200,301.200 441.200 C 300.533 441.200,300.400 440.933,300.400 439.600 C 300.400 438.267,300.267 438.000,299.600 438.000 C 298.933 438.000,298.800 437.733,298.800 436.400 C 298.800 435.067,298.667 434.800,298.000 434.800 C 297.333 434.800,297.200 434.533,297.200 433.200 C 297.200 431.867,297.067 431.600,296.400 431.600 C 295.736 431.600,295.600 431.333,295.600 430.027 C 295.600 428.805,295.421 428.397,294.800 428.200 C 294.199 428.009,294.000 427.595,294.000 426.536 C 294.000 425.475,293.807 425.075,293.222 424.922 C 292.663 424.776,292.409 424.307,292.322 423.262 C 292.238 422.267,291.983 421.766,291.514 421.677 C 290.295 421.446,288.537 419.441,287.404 416.990 C 286.797 415.676,284.633 411.180,282.597 407.000 C 278.269 398.117,275.820 392.999,275.226 391.600 C 274.993 391.050,274.631 390.330,274.422 390.000 C 273.979 389.299,269.788 380.491,268.236 377.000 C 267.650 375.680,266.995 374.330,266.782 374.000 C 266.569 373.670,266.196 372.950,265.954 372.400 C 265.712 371.850,265.353 371.130,265.156 370.800 C 264.959 370.470,264.607 369.750,264.374 369.200 C 263.688 367.583,258.639 357.064,258.037 356.000 C 257.851 355.670,256.976 353.870,256.092 352.000 C 255.209 350.130,253.406 346.350,252.085 343.600 C 250.764 340.850,248.478 336.080,247.004 333.000 C 245.530 329.920,243.275 325.240,241.994 322.600 C 239.698 317.871,236.994 312.222,232.321 302.400 C 231.013 299.650,229.774 297.130,229.569 296.800 C 229.363 296.470,229.086 295.930,228.954 295.600 C 228.465 294.384,226.700 290.581,226.354 290.000 C 226.158 289.670,225.819 288.950,225.599 288.400 C 225.380 287.850,225.015 287.130,224.789 286.800 C 224.562 286.470,224.267 285.870,224.133 285.466 C 223.999 285.062,223.104 283.193,222.144 281.313 C 219.996 277.102,219.933 277.688,222.847 274.705 C 227.295 270.151,230.961 264.271,231.810 260.329 C 231.968 259.598,232.347 258.509,232.654 257.908 C 233.404 256.440,233.929 248.123,233.531 244.008 C 232.497 233.309,223.220 219.536,215.154 216.724 C 214.519 216.503,214.000 216.173,214.000 215.992 C 214.000 215.810,213.325 215.445,212.500 215.179 C 211.675 214.913,210.820 214.555,210.600 214.384 C 210.380 214.212,209.570 213.909,208.800 213.711 C 206.919 213.225,206.903 213.116,206.847 199.680 C 206.795 187.235,206.752 186.982,204.253 184.610 C 202.401 182.851,197.601 182.637,195.826 184.234 M398.787 194.500 C 398.543 195.435,397.996 196.932,397.571 197.826 C 397.147 198.721,396.800 199.562,396.800 199.695 C 396.800 201.970,385.230 214.000,383.042 214.000 C 382.868 214.000,382.269 214.360,381.709 214.800 C 381.150 215.240,380.378 215.600,379.995 215.600 C 379.612 215.600,379.087 215.854,378.829 216.165 C 378.571 216.476,377.424 216.949,376.280 217.217 C 375.136 217.485,373.979 217.880,373.708 218.095 C 372.918 218.721,365.692 219.164,355.964 219.183 L 346.928 219.200 346.464 220.219 C 346.116 220.983,345.997 245.907,345.988 319.919 L 345.975 418.600 344.990 420.200 L 344.004 421.800 344.002 452.900 L 344.000 484.000 358.600 484.000 C 368.067 484.000,373.200 483.859,373.200 483.600 C 373.200 483.378,374.267 483.200,375.600 483.200 C 377.733 483.200,378.000 483.111,378.000 482.400 C 378.000 481.743,378.268 481.599,379.500 481.595 C 381.589 481.587,382.800 481.205,382.800 480.553 C 382.800 480.249,383.177 480.000,383.637 480.000 C 384.138 480.000,384.559 479.679,384.684 479.200 C 384.833 478.631,385.230 478.400,386.059 478.400 C 386.752 478.400,387.323 478.144,387.467 477.769 C 387.600 477.423,388.135 476.977,388.655 476.779 C 389.175 476.582,389.600 476.145,389.600 475.810 C 389.600 475.474,389.887 475.200,390.237 475.200 C 390.588 475.200,390.969 474.840,391.084 474.400 C 391.199 473.960,391.559 473.600,391.884 473.600 C 392.209 473.600,392.565 473.257,392.674 472.837 C 392.784 472.417,393.217 471.984,393.637 471.874 C 394.063 471.763,394.400 471.326,394.400 470.884 C 394.400 470.430,394.740 470.004,395.200 469.884 C 395.774 469.734,396.000 469.338,396.000 468.484 C 396.000 467.630,396.226 467.234,396.800 467.084 C 397.382 466.932,397.600 466.538,397.600 465.641 C 397.600 464.840,397.881 464.231,398.400 463.907 C 398.970 463.551,399.200 462.974,399.200 461.904 C 399.200 461.077,399.380 460.400,399.600 460.400 C 399.866 460.400,400.000 415.533,400.000 326.600 C 400.000 241.243,399.861 192.800,399.615 192.800 C 399.404 192.800,399.031 193.565,398.787 194.500 M205.400 227.458 C 217.274 231.944,224.090 247.577,218.369 257.200 C 218.172 257.530,217.750 258.381,217.430 259.091 C 217.110 259.801,216.663 260.611,216.436 260.891 C 210.444 268.294,205.777 270.588,197.256 270.318 C 193.783 270.207,191.762 269.958,190.800 269.521 C 190.030 269.171,188.950 268.684,188.400 268.438 C 185.031 266.934,178.410 260.900,178.398 259.323 C 178.396 259.146,178.102 258.460,177.744 257.800 C 171.268 245.863,180.241 228.751,194.000 226.800 C 197.072 226.365,203.486 226.735,205.400 227.458 " stroke="none" fill="#042d45" fill-rule="evenodd"></path><path id="path3" d="M0.000 108.795 C 0.000 109.739,0.259 110.716,0.600 111.057 C 0.930 111.387,1.201 112.229,1.203 112.929 C 1.204 113.628,1.563 114.740,2.000 115.400 C 2.437 116.060,2.800 116.960,2.806 117.400 C 2.813 117.840,3.170 118.650,3.600 119.200 C 4.030 119.750,4.386 120.487,4.391 120.838 C 4.396 121.189,4.760 121.802,5.200 122.200 C 5.640 122.598,6.000 123.255,6.000 123.659 C 6.000 124.063,6.360 124.618,6.800 124.893 C 7.240 125.168,7.600 125.531,7.600 125.701 C 7.600 126.109,10.060 128.850,12.800 131.495 C 15.776 134.367,16.092 134.631,16.900 134.922 C 17.285 135.061,17.600 135.347,17.600 135.556 C 17.600 135.766,18.216 136.141,18.968 136.389 C 19.720 136.638,20.543 137.090,20.796 137.395 C 21.048 137.699,21.768 138.061,22.394 138.199 C 23.021 138.336,23.626 138.690,23.739 138.985 C 23.852 139.279,24.718 139.651,25.663 139.811 C 26.609 139.970,27.756 140.346,28.212 140.644 C 28.668 140.943,30.382 141.363,32.020 141.578 C 33.659 141.793,36.170 142.167,37.600 142.410 C 42.096 143.174,325.679 142.377,325.917 141.600 C 326.065 141.116,325.998 141.096,325.570 141.500 C 324.703 142.318,75.261 142.225,74.947 141.407 C 74.779 140.967,74.531 140.916,73.986 141.207 C 72.971 141.751,44.469 141.712,37.421 141.158 C 31.803 140.716,28.082 139.820,24.174 137.970 C 23.279 137.546,22.435 137.200,22.298 137.200 C 21.497 137.200,14.601 132.030,12.575 129.910 C 9.547 126.742,6.800 123.407,6.800 122.898 C 6.800 122.684,6.465 122.079,6.055 121.554 C 5.645 121.029,5.174 120.150,5.008 119.600 C 4.841 119.050,4.477 118.330,4.197 118.000 C 3.918 117.670,3.558 116.770,3.398 116.000 C 3.238 115.230,2.927 114.376,2.707 114.103 C 2.487 113.829,2.013 112.224,1.653 110.535 C 0.918 107.081,-0.000 106.115,0.000 108.795 M197.313 182.341 C 195.713 182.966,194.549 183.849,193.200 185.462 C 192.705 186.054,192.565 188.368,192.400 198.714 L 192.200 211.249 189.800 212.186 C 188.480 212.701,186.742 213.235,185.939 213.372 C 185.135 213.509,184.376 213.887,184.251 214.211 C 184.121 214.550,183.512 214.800,182.816 214.800 C 182.040 214.800,181.428 215.087,181.107 215.600 C 180.832 216.040,180.291 216.400,179.904 216.400 C 179.517 216.400,178.840 216.760,178.400 217.200 C 177.960 217.640,177.422 218.000,177.203 218.000 C 176.985 218.000,176.582 218.360,176.307 218.800 C 176.032 219.240,175.595 219.600,175.334 219.600 C 174.727 219.600,169.600 224.738,169.600 225.347 C 169.600 225.600,169.240 226.032,168.800 226.307 C 168.360 226.582,168.000 227.032,168.000 227.307 C 168.000 227.582,167.640 228.032,167.200 228.307 C 166.760 228.582,166.400 229.137,166.400 229.541 C 166.400 229.945,166.040 230.602,165.600 231.000 C 165.160 231.398,164.800 232.080,164.800 232.515 C 164.800 232.950,164.463 233.867,164.051 234.553 C 163.639 235.239,163.192 236.531,163.058 237.423 C 162.925 238.316,162.527 239.624,162.176 240.328 C 161.238 242.207,161.503 255.627,162.512 257.400 C 162.888 258.060,163.196 259.161,163.198 259.846 C 163.199 260.531,163.560 261.550,164.000 262.109 C 164.440 262.669,164.800 263.475,164.800 263.902 C 164.800 264.329,165.160 265.093,165.600 265.600 C 166.040 266.107,166.400 266.741,166.400 267.008 C 166.400 267.624,170.375 272.800,170.848 272.800 C 171.042 272.800,171.200 272.978,171.200 273.197 C 171.200 273.609,172.666 275.086,174.773 276.796 C 176.211 277.962,176.285 278.418,175.200 279.400 C 174.760 279.798,174.400 280.519,174.400 281.001 C 174.400 281.483,174.040 282.293,173.600 282.800 C 173.160 283.307,172.800 284.071,172.800 284.498 C 172.800 284.925,172.440 285.731,172.000 286.291 C 171.560 286.850,171.200 287.694,171.200 288.165 C 171.200 288.636,170.840 289.330,170.400 289.707 C 169.960 290.084,169.600 290.771,169.600 291.233 C 169.600 291.695,169.240 292.531,168.800 293.091 C 168.360 293.650,168.000 294.506,168.000 294.992 C 168.000 295.478,167.640 296.202,167.200 296.600 C 166.760 296.998,166.400 297.673,166.400 298.099 C 166.400 298.525,166.040 299.331,165.600 299.891 C 165.160 300.450,164.799 301.199,164.797 301.554 C 164.796 301.909,164.437 302.740,164.000 303.400 C 163.563 304.060,163.204 304.891,163.203 305.246 C 163.201 305.601,162.840 306.350,162.400 306.909 C 161.960 307.469,161.600 308.275,161.600 308.702 C 161.600 309.129,161.240 309.893,160.800 310.400 C 160.360 310.907,160.000 311.723,160.000 312.212 C 160.000 312.702,159.739 313.318,159.420 313.583 C 159.102 313.848,158.625 314.720,158.360 315.521 C 158.096 316.322,157.636 317.221,157.340 317.518 C 157.043 317.814,156.799 318.359,156.797 318.729 C 156.796 319.098,156.437 319.940,156.000 320.600 C 155.563 321.260,155.204 322.091,155.203 322.446 C 155.201 322.801,154.863 323.521,154.452 324.046 C 154.041 324.571,153.579 325.573,153.426 326.272 C 153.274 326.972,152.909 327.744,152.616 327.987 C 152.323 328.230,151.970 329.034,151.831 329.774 C 151.692 330.514,151.318 331.336,151.000 331.600 C 150.682 331.864,150.309 332.680,150.171 333.412 C 150.034 334.145,149.686 334.835,149.398 334.945 C 149.111 335.056,148.745 335.743,148.586 336.473 C 148.426 337.203,147.959 338.229,147.548 338.754 C 147.137 339.279,146.800 340.114,146.800 340.611 C 146.800 341.108,146.540 341.614,146.222 341.736 C 145.904 341.858,145.525 342.591,145.380 343.365 C 145.235 344.138,144.870 344.976,144.569 345.226 C 144.268 345.476,143.908 346.286,143.769 347.026 C 143.630 347.766,143.277 348.570,142.984 348.813 C 142.691 349.056,142.329 349.828,142.179 350.528 C 142.029 351.227,141.568 352.122,141.153 352.516 C 140.739 352.909,140.400 353.601,140.400 354.052 C 140.400 354.504,140.040 355.331,139.600 355.891 C 139.160 356.450,138.800 357.260,138.800 357.691 C 138.800 358.121,138.440 358.931,138.000 359.491 C 137.560 360.050,137.200 360.770,137.200 361.091 C 137.200 361.411,136.840 362.131,136.400 362.691 C 135.960 363.250,135.600 364.060,135.600 364.491 C 135.600 364.921,135.240 365.731,134.800 366.291 C 134.360 366.850,134.000 367.619,134.000 368.000 C 134.000 368.381,133.663 369.121,133.252 369.646 C 132.841 370.171,132.379 371.173,132.226 371.872 C 132.074 372.572,131.690 373.359,131.374 373.621 C 131.058 373.883,130.800 374.412,130.800 374.795 C 130.800 375.178,130.440 375.950,130.000 376.509 C 129.560 377.069,129.200 377.875,129.200 378.302 C 129.200 378.729,128.840 379.493,128.400 380.000 C 127.960 380.507,127.600 381.317,127.600 381.800 C 127.600 382.283,127.240 383.093,126.800 383.600 C 126.360 384.107,126.000 384.917,126.000 385.399 C 126.000 385.881,125.658 386.586,125.240 386.964 C 124.821 387.343,124.363 388.271,124.221 389.026 C 124.080 389.782,123.795 390.400,123.589 390.400 C 123.384 390.400,123.092 390.895,122.941 391.500 C 122.790 392.105,122.247 393.392,121.733 394.360 C 121.220 395.327,120.800 396.433,120.800 396.817 C 120.800 397.200,120.553 397.609,120.251 397.725 C 119.948 397.841,119.584 398.562,119.440 399.328 C 119.296 400.093,118.918 400.936,118.600 401.200 C 118.282 401.464,117.909 402.280,117.771 403.012 C 117.634 403.745,117.279 404.438,116.983 404.551 C 116.687 404.665,116.325 405.391,116.180 406.165 C 116.035 406.938,115.677 407.770,115.384 408.013 C 115.091 408.256,114.728 409.018,114.577 409.705 C 114.426 410.392,114.046 411.212,113.732 411.526 C 113.418 411.840,113.058 412.611,112.932 413.239 C 112.806 413.868,112.460 414.584,112.162 414.831 C 111.865 415.078,111.509 415.881,111.371 416.614 C 111.233 417.348,110.779 418.257,110.360 418.636 C 109.942 419.014,109.600 419.566,109.600 419.862 C 109.600 420.158,109.454 420.400,109.276 420.400 C 108.603 420.400,107.357 421.574,108.016 421.587 C 108.665 421.601,112.000 418.786,112.000 418.225 C 112.000 418.045,112.651 416.526,113.447 414.849 C 117.483 406.345,119.910 401.123,121.184 398.200 C 121.664 397.100,122.225 395.930,122.431 395.600 C 122.637 395.270,122.913 394.730,123.046 394.400 C 123.178 394.070,124.055 392.180,124.995 390.200 C 126.695 386.618,127.649 384.522,129.228 380.900 C 129.684 379.855,130.225 378.730,130.431 378.400 C 130.637 378.070,130.913 377.530,131.045 377.200 C 131.176 376.870,131.963 375.160,132.792 373.400 C 133.622 371.640,134.786 369.120,135.379 367.800 C 137.007 364.178,138.088 361.867,138.465 361.200 C 138.652 360.870,138.917 360.330,139.053 360.000 C 139.637 358.588,141.377 354.770,142.789 351.800 C 143.626 350.040,144.871 347.385,145.555 345.900 C 148.626 339.239,149.398 337.582,151.005 334.200 C 151.946 332.220,153.115 329.700,153.604 328.600 C 155.107 325.214,157.644 319.832,158.035 319.200 C 158.238 318.870,158.517 318.330,158.653 318.000 C 158.881 317.450,159.422 316.234,161.679 311.200 C 162.613 309.118,164.348 305.392,166.896 300.000 C 167.884 297.910,169.100 295.300,169.599 294.200 C 171.910 289.104,173.776 285.145,175.224 282.268 C 177.447 277.848,177.435 277.792,173.400 274.075 C 168.720 269.763,164.515 262.242,163.585 256.522 C 163.378 255.245,163.026 253.571,162.804 252.803 C 161.910 249.710,163.024 239.348,164.568 236.400 C 164.856 235.850,165.217 234.874,165.370 234.232 C 165.524 233.589,165.998 232.620,166.425 232.078 C 166.851 231.536,167.200 230.944,167.200 230.764 C 167.200 230.100,170.991 224.948,172.775 223.188 C 175.019 220.973,179.043 217.974,181.200 216.909 C 181.750 216.637,182.470 216.252,182.800 216.053 C 184.214 215.199,187.569 214.000,189.697 213.589 C 193.304 212.891,193.200 213.304,193.200 199.710 C 193.200 186.716,193.246 186.456,195.943 184.187 C 197.827 182.601,202.376 182.834,204.253 184.613 C 206.751 186.979,206.795 187.235,206.847 199.680 C 206.903 213.116,206.919 213.225,208.800 213.711 C 209.570 213.909,210.380 214.212,210.600 214.384 C 210.820 214.555,211.675 214.913,212.500 215.179 C 213.325 215.445,214.000 215.810,214.000 215.992 C 214.000 216.173,214.519 216.503,215.154 216.724 C 223.220 219.536,232.497 233.309,233.531 244.008 C 233.929 248.123,233.404 256.440,232.654 257.908 C 232.347 258.509,231.968 259.598,231.810 260.329 C 230.961 264.271,227.295 270.151,222.847 274.705 C 219.933 277.688,219.996 277.102,222.144 281.313 C 223.104 283.193,223.999 285.062,224.133 285.466 C 224.267 285.870,224.562 286.470,224.789 286.800 C 225.015 287.130,225.380 287.850,225.599 288.400 C 225.819 288.950,226.158 289.670,226.354 290.000 C 226.550 290.330,227.197 291.680,227.791 293.000 C 228.385 294.320,229.036 295.670,229.238 296.000 C 229.440 296.330,229.716 296.870,229.851 297.200 C 229.986 297.530,231.133 299.960,232.398 302.600 C 233.664 305.240,235.817 309.740,237.182 312.600 C 238.547 315.460,240.712 319.960,241.994 322.600 C 243.275 325.240,245.530 329.920,247.004 333.000 C 248.478 336.080,250.764 340.850,252.085 343.600 C 253.406 346.350,255.209 350.130,256.092 352.000 C 256.976 353.870,257.851 355.670,258.037 356.000 C 258.639 357.064,263.688 367.583,264.374 369.200 C 264.607 369.750,264.959 370.470,265.156 370.800 C 265.353 371.130,265.712 371.850,265.954 372.400 C 266.196 372.950,266.569 373.670,266.782 374.000 C 266.995 374.330,267.650 375.680,268.236 377.000 C 269.788 380.491,273.979 389.299,274.422 390.000 C 274.631 390.330,274.993 391.050,275.226 391.600 C 275.820 392.999,278.269 398.117,282.597 407.000 C 284.633 411.180,286.797 415.676,287.404 416.990 C 288.662 419.711,290.938 422.243,290.722 420.681 C 290.603 419.824,290.721 419.797,295.100 419.687 L 299.600 419.574 299.600 418.349 C 299.600 417.675,299.339 416.646,299.020 416.062 C 298.701 415.478,297.422 412.840,296.178 410.200 C 294.935 407.560,292.655 402.790,291.112 399.600 C 289.569 396.410,287.232 391.550,285.920 388.800 C 283.646 384.032,283.292 383.315,282.423 381.700 C 282.216 381.315,281.205 379.200,280.177 377.000 C 279.148 374.800,276.907 370.120,275.195 366.600 C 273.484 363.080,271.322 358.580,270.390 356.600 C 269.459 354.620,267.301 350.120,265.594 346.600 C 263.887 343.080,261.740 338.580,260.822 336.600 C 259.904 334.620,258.980 332.730,258.768 332.400 C 258.557 332.070,258.101 331.170,257.755 330.400 C 256.965 328.643,253.640 321.717,249.593 313.400 C 247.880 309.880,245.633 305.200,244.599 303.000 C 242.498 298.529,240.923 295.301,240.403 294.400 C 240.056 293.799,238.809 291.077,238.022 289.200 C 237.791 288.650,237.431 287.930,237.222 287.600 C 237.013 287.270,235.836 284.867,234.605 282.261 C 232.056 276.862,231.918 277.690,236.054 273.572 C 241.171 268.477,244.539 261.988,246.005 254.400 C 246.451 252.088,246.466 244.278,246.028 242.200 C 245.312 238.806,244.280 235.367,243.752 234.611 C 243.448 234.177,243.200 233.570,243.200 233.263 C 243.200 231.911,237.268 223.758,234.688 221.564 C 230.333 217.861,222.770 213.643,220.356 213.572 C 218.919 213.530,217.755 212.999,218.327 212.645 C 218.675 212.430,218.800 208.994,218.800 199.622 L 218.800 186.891 216.838 184.801 L 214.876 182.712 211.669 182.857 C 209.049 182.976,208.291 183.163,207.531 183.875 C 206.521 184.821,205.736 184.644,204.284 183.141 C 203.891 182.733,203.046 182.400,202.408 182.400 C 201.770 182.400,201.136 182.220,201.000 182.000 C 200.655 181.441,199.295 181.567,197.313 182.341 M398.439 191.260 C 398.198 191.953,397.999 192.988,397.997 193.560 C 397.996 194.132,397.637 195.140,397.200 195.800 C 396.763 196.460,396.404 197.291,396.403 197.646 C 396.401 198.001,396.040 198.750,395.600 199.309 C 395.160 199.869,394.800 200.553,394.800 200.830 C 394.800 201.106,394.527 201.618,394.193 201.966 C 393.859 202.315,392.620 203.804,391.440 205.275 C 389.114 208.176,388.003 209.259,385.771 210.800 C 384.974 211.350,384.030 212.115,383.672 212.500 C 383.315 212.885,382.726 213.200,382.365 213.200 C 382.004 213.200,381.279 213.537,380.754 213.948 C 380.229 214.359,379.203 214.826,378.473 214.986 C 377.743 215.145,377.057 215.506,376.949 215.789 C 376.838 216.077,375.738 216.417,374.434 216.564 C 373.160 216.709,371.775 217.085,371.358 217.401 C 370.740 217.869,368.408 217.977,358.722 217.987 L 346.845 218.000 345.722 218.965 L 344.600 219.931 344.501 320.465 C 344.402 420.974,344.402 421.000,345.198 419.800 C 345.988 418.610,345.995 417.787,345.997 319.919 C 345.999 245.889,346.116 220.983,346.464 220.219 L 346.928 219.200 355.964 219.183 C 365.692 219.164,372.918 218.721,373.708 218.095 C 373.979 217.880,375.136 217.485,376.280 217.217 C 377.424 216.949,378.571 216.476,378.829 216.165 C 379.087 215.854,379.612 215.600,379.995 215.600 C 380.378 215.600,381.150 215.240,381.709 214.800 C 382.269 214.360,382.868 214.000,383.042 214.000 C 385.230 214.000,396.800 201.970,396.800 199.695 C 396.800 199.562,397.147 198.721,397.571 197.826 C 397.996 196.932,398.543 195.435,398.787 194.500 C 399.031 193.565,399.404 192.800,399.615 192.800 C 399.827 192.800,400.000 192.170,400.000 191.400 C 400.000 189.607,399.045 189.521,398.439 191.260 M194.000 226.800 C 180.241 228.751,171.268 245.863,177.744 257.800 C 178.102 258.460,178.396 259.146,178.398 259.323 C 178.410 260.900,185.031 266.934,188.400 268.438 C 188.950 268.684,190.030 269.171,190.800 269.521 C 191.762 269.958,193.783 270.207,197.256 270.318 C 205.777 270.588,210.444 268.294,216.436 260.891 C 216.663 260.611,217.110 259.801,217.430 259.091 C 217.750 258.381,218.172 257.530,218.369 257.200 C 220.134 254.230,220.694 247.033,219.473 243.000 C 215.875 231.116,206.338 225.051,194.000 226.800 M207.554 229.663 C 208.079 230.068,208.744 230.400,209.034 230.400 C 209.610 230.400,214.800 235.379,214.800 235.933 C 214.800 236.121,215.144 236.587,215.564 236.967 C 215.984 237.348,216.448 238.141,216.595 238.729 C 216.742 239.318,217.125 240.091,217.445 240.447 C 217.782 240.821,218.201 242.639,218.436 244.747 C 219.370 253.108,217.441 259.062,212.229 263.911 C 211.585 264.510,210.748 265.297,210.369 265.661 C 209.989 266.024,209.256 266.449,208.739 266.606 C 208.223 266.763,207.424 267.235,206.965 267.655 C 206.326 268.239,205.434 268.439,203.165 268.509 C 193.912 268.793,184.849 252.627,188.640 242.600 C 188.973 241.720,189.405 240.497,189.600 239.882 C 190.858 235.918,196.563 230.033,200.559 228.578 C 202.083 228.023,206.273 228.673,207.554 229.663 M193.800 346.142 C 189.051 348.231,186.883 350.326,184.633 355.000 C 182.780 358.850,179.684 365.427,178.703 367.600 C 178.256 368.590,176.951 371.380,175.804 373.800 C 173.652 378.341,172.843 380.088,170.991 384.200 C 170.396 385.520,168.964 388.580,167.808 391.000 C 166.652 393.420,165.303 396.300,164.809 397.400 C 162.796 401.890,161.893 403.831,161.553 404.400 C 161.356 404.730,161.083 405.270,160.947 405.600 C 160.169 407.480,158.707 410.710,158.322 411.400 C 157.725 412.469,157.496 412.935,155.994 416.142 C 154.518 419.290,154.247 421.298,155.269 421.509 C 155.716 421.601,155.982 421.341,156.069 420.723 C 156.197 419.824,156.325 419.797,161.078 419.688 L 165.956 419.576 167.417 416.488 C 168.221 414.790,169.510 412.050,170.283 410.400 C 171.055 408.750,172.477 405.780,173.444 403.800 C 174.410 401.820,175.200 399.997,175.200 399.749 C 175.200 399.501,175.465 399.078,175.789 398.809 C 176.114 398.540,176.492 397.714,176.631 396.974 C 176.770 396.234,177.135 395.420,177.442 395.165 C 177.749 394.910,178.000 394.502,178.000 394.257 C 178.000 394.012,178.432 392.909,178.960 391.806 C 183.315 382.707,187.896 373.032,188.811 371.000 C 189.207 370.120,190.429 367.510,191.526 365.200 C 193.705 360.612,196.152 355.347,196.546 354.400 C 197.889 351.165,202.131 347.210,204.264 347.204 C 205.489 347.200,208.800 349.001,208.800 349.671 C 208.800 349.852,209.058 350.000,209.373 350.000 C 209.688 350.000,210.060 350.360,210.200 350.800 C 210.340 351.240,210.619 351.600,210.822 351.600 C 211.024 351.600,211.443 352.208,211.754 352.951 C 212.064 353.694,212.517 354.425,212.759 354.575 C 213.002 354.725,213.200 355.172,213.200 355.570 C 213.200 355.967,213.537 356.721,213.948 357.246 C 214.359 357.771,214.826 358.797,214.986 359.527 C 215.145 360.257,215.511 360.944,215.798 361.055 C 216.086 361.165,216.434 361.855,216.571 362.588 C 216.709 363.320,217.069 364.125,217.371 364.376 C 217.674 364.627,218.043 365.320,218.192 365.916 C 218.341 366.512,218.696 367.270,218.981 367.600 C 219.266 367.930,219.716 368.875,219.980 369.700 C 220.245 370.525,220.608 371.200,220.787 371.200 C 220.965 371.200,221.226 371.812,221.366 372.560 C 221.506 373.308,221.869 374.125,222.171 374.376 C 222.474 374.627,222.843 375.320,222.992 375.916 C 223.141 376.512,223.496 377.270,223.781 377.600 C 224.066 377.930,224.516 378.875,224.780 379.700 C 225.045 380.525,225.414 381.200,225.599 381.200 C 225.785 381.200,226.064 381.785,226.220 382.500 C 226.376 383.215,226.841 384.229,227.252 384.754 C 227.663 385.279,228.000 386.022,228.000 386.405 C 228.000 386.788,228.258 387.317,228.574 387.579 C 228.890 387.841,229.274 388.628,229.426 389.328 C 229.579 390.027,230.041 391.029,230.452 391.554 C 230.863 392.079,231.200 392.816,231.200 393.193 C 231.200 393.569,231.560 394.293,232.000 394.800 C 232.440 395.307,232.800 396.031,232.800 396.407 C 232.800 396.784,233.160 397.550,233.600 398.109 C 234.040 398.669,234.400 399.389,234.400 399.709 C 234.400 400.030,234.760 400.750,235.200 401.309 C 235.640 401.869,236.000 402.589,236.000 402.909 C 236.000 403.230,236.360 403.950,236.800 404.509 C 237.240 405.069,237.600 405.879,237.600 406.309 C 237.600 406.740,237.960 407.550,238.400 408.109 C 238.840 408.669,239.200 409.389,239.200 409.709 C 239.200 410.030,239.560 410.750,240.000 411.309 C 240.440 411.869,240.800 412.696,240.800 413.148 C 240.800 413.599,241.139 414.291,241.553 414.684 C 241.968 415.078,242.435 415.997,242.591 416.727 C 242.747 417.457,243.128 418.151,243.438 418.270 C 243.768 418.396,244.015 419.087,244.036 419.943 L 244.072 421.400 244.473 420.000 C 244.802 418.855,244.730 418.311,244.075 417.000 C 243.636 416.120,242.705 414.230,242.006 412.800 C 241.308 411.370,240.582 409.930,240.392 409.600 C 239.994 408.908,237.056 402.685,236.426 401.200 C 236.193 400.650,235.847 399.930,235.658 399.600 C 235.180 398.764,232.127 392.416,231.619 391.200 C 231.390 390.650,231.034 389.930,230.829 389.600 C 230.472 389.024,229.305 386.504,228.422 384.400 C 228.191 383.850,227.837 383.130,227.634 382.800 C 227.207 382.102,223.144 373.685,219.621 366.200 C 218.275 363.340,217.000 360.685,216.787 360.300 C 216.177 359.197,215.722 358.281,215.246 357.200 C 215.004 356.650,214.644 355.930,214.446 355.600 C 214.248 355.270,213.879 354.550,213.627 354.000 C 210.363 346.883,200.764 343.079,193.800 346.142 " stroke="none" fill="#3474ba" fill-rule="evenodd"></path><path id="path4" d="M140.400 84.233 C 127.792 88.819,129.075 105.400,142.038 105.400 L 145.876 105.400 148.228 103.463 C 154.792 98.060,154.555 89.380,147.736 85.383 C 145.916 84.317,141.900 83.687,140.400 84.233 M253.905 85.680 C 251.713 86.262,248.226 89.881,247.649 92.172 C 245.772 99.626,250.182 105.605,257.550 105.598 C 261.134 105.594,262.710 104.963,265.006 102.612 C 272.849 94.578,265.070 82.713,253.905 85.680 " stroke="none" fill="#f5fbf8" fill-rule="evenodd"></path></g></svg>